<?xml version="1.0" encoding="utf-8"?>
<!-- Generator: Adobe Illustrator 18.1.1, SVG Export Plug-In . SVG Version: 6.00 Build 0)  -->
<svg version="1.1" id="Capa_1" xmlns="http://www.w3.org/2000/svg" xmlns:xlink="http://www.w3.org/1999/xlink" x="0px" y="0px"
	 viewBox="0 0 450.5 453.1" enable-background="new 0 0 450.5 453.1" xml:space="preserve">
<g>
	
		<circle fill="#5CBBFF" stroke="#0088FF" stroke-width="10" stroke-linejoin="round" stroke-miterlimit="10" cx="-645.1" cy="204.2" r="230.4"/>
	<g>
		<path fill="#0088FF" d="M-805.6,93.6c-5.5,0-10,4.5-10,10v201.2c0,5.5,4.5,10,10,10h321c5.5,0,10-4.5,10-10V103.6
			c0-5.5-4.5-10-10-10H-805.6z M-759.6,94.9c5.6,0,10.1,4.5,10.1,10.1c0,5.6-4.5,10.1-10.1,10.1s-10.1-4.5-10.1-10.1
			C-769.7,99.4-765.2,94.9-759.6,94.9z M-780.1,94.9c5.6,0,10.1,4.5,10.1,10.1c0,5.6-4.5,10.1-10.1,10.1s-10.1-4.5-10.1-10.1
			C-790.2,99.4-785.7,94.9-780.1,94.9z M-810.7,105c0-5.6,4.5-10.1,10.1-10.1c5.6,0,10.1,4.5,10.1,10.1c0,5.6-4.5,10.1-10.1,10.1
			C-806.2,115.1-810.7,110.6-810.7,105z M-485.4,297.1c0,5.5-4.5,10-10,10h-299.5c-5.5,0-10-4.5-10-10V128.2c0-5.5,4.5-10,10-10
			h299.5c5.5,0,10,4.5,10,10V297.1z"/>
		<path fill="none" stroke="#0088FF" stroke-width="10" stroke-linejoin="round" stroke-miterlimit="10" d="M-805.6,93.6
			c-5.5,0-10,4.5-10,10v201.2c0,5.5,4.5,10,10,10h321c5.5,0,10-4.5,10-10V103.6c0-5.5-4.5-10-10-10H-805.6z M-759.6,94.9
			c5.6,0,10.1,4.5,10.1,10.1c0,5.6-4.5,10.1-10.1,10.1s-10.1-4.5-10.1-10.1C-769.7,99.4-765.2,94.9-759.6,94.9z M-780.1,94.9
			c5.6,0,10.1,4.5,10.1,10.1c0,5.6-4.5,10.1-10.1,10.1s-10.1-4.5-10.1-10.1C-790.2,99.4-785.7,94.9-780.1,94.9z M-810.7,105
			c0-5.6,4.5-10.1,10.1-10.1c5.6,0,10.1,4.5,10.1,10.1c0,5.6-4.5,10.1-10.1,10.1C-806.2,115.1-810.7,110.6-810.7,105z M-485.4,297.1
			c0,5.5-4.5,10-10,10h-299.5c-5.5,0-10-4.5-10-10V128.2c0-5.5,4.5-10,10-10h299.5c5.5,0,10,4.5,10,10V297.1z"/>
	</g>
	<g>
		
			<line fill="none" stroke="#FFFFFF" stroke-width="10" stroke-linecap="round" stroke-linejoin="round" stroke-miterlimit="10" x1="-754" y1="155.7" x2="-669" y2="155.7"/>
		
			<line fill="none" stroke="#FFFFFF" stroke-width="10" stroke-linecap="round" stroke-linejoin="round" stroke-miterlimit="10" x1="-729" y1="186.7" x2="-535" y2="186.7"/>
		
			<line fill="none" stroke="#FFFFFF" stroke-width="10" stroke-linecap="round" stroke-linejoin="round" stroke-miterlimit="10" x1="-729" y1="216.7" x2="-535" y2="216.7"/>
		
			<line fill="none" stroke="#FFFFFF" stroke-width="10" stroke-linecap="round" stroke-linejoin="round" stroke-miterlimit="10" x1="-729" y1="247.7" x2="-535" y2="247.7"/>
		
			<line fill="none" stroke="#FFFFFF" stroke-width="10" stroke-linecap="round" stroke-linejoin="round" stroke-miterlimit="10" x1="-754" y1="277.7" x2="-669" y2="277.7"/>
	</g>
</g>
<circle fill="#09DD00" stroke="#8BBF55" stroke-width="10" stroke-miterlimit="10" cx="224.5" cy="226.7" r="217.7"/>
<path fill="#8BBF55" stroke="#494949" stroke-miterlimit="10" d="M142.6,175c0,0,2.6,0.5,7.5,1.4c4.9,1,11.9,2.4,20.9,4.3
	c18,3.8,43.5,9.5,74,17.6c15.2,4,31.7,8.7,49,14.2c17.3,5.5,35.5,11.8,54,19.9c9.3,4.1,18.6,8.5,28,14c4.7,2.8,9.3,5.8,13.9,9.3
	c4.6,3.6,9.2,7.6,13.3,12.9c2.1,2.7,4,5.7,5.6,9.2c1.6,3.5,2.7,7.7,2.9,12c0.2,4.3-0.6,8.7-2.1,12.4c-1.5,3.8-3.5,7-5.6,9.7
	c-4.3,5.5-9.1,9.3-14,12.7c-4.8,3.3-9.8,6.1-14.7,8.6c-2.5,1.2-5,2.4-7.4,3.5l-1.9,0.8l-2.1,0.9c-1.4,0.6-2.8,1.1-4.2,1.5
	c-5.5,1.9-11,3.2-16.4,4.2c-10.9,2-21.5,2.8-32,3.1c-21,0.6-41.2-0.6-60.6-2c-38.9-3-74.8-7.2-105.5-7.5
	c-15.3-0.1-29.5,0.7-41.1,4.1c-5.8,1.8-10.9,4.3-14.5,7.8c-3.6,3.5-5.3,8.1-5.6,12.3c-0.3,4.3,0.4,8.2,1.2,11.5
	c0.9,3.3,1.9,6.1,2.8,8.3c0.9,2.2,1.7,3.9,2.3,5c0.5,1.1,0.8,1.7,0.8,1.7l0,0c0.1,0.3,0,0.6-0.3,0.8c-0.3,0.1-0.6,0-0.8-0.2
	c0,0-0.3-0.6-0.9-1.7c-0.6-1.1-1.5-2.7-2.6-4.9c-1.1-2.2-2.3-5-3.4-8.4c-1.1-3.4-2.1-7.5-2.1-12.3c0-4.7,1.7-10.3,5.7-14.8
	c3.9-4.5,9.6-7.6,15.7-9.9c12.4-4.5,26.9-6.1,42.5-7c31.4-1.7,67.7,0.4,106.3,0.9c19.3,0.2,39.2,0.2,58.9-1.7
	c9.8-0.9,19.7-2.3,29-4.6c4.6-1.2,9.2-2.6,13.4-4.3c1-0.4,2.1-0.9,3.1-1.3l1.4-0.7l1.6-0.8c2.2-1.2,4.3-2.3,6.4-3.6
	c4.1-2.5,8.1-5.1,11.6-7.9c3.5-2.8,6.5-5.8,8.3-8.6c0.9-1.4,1.5-2.7,1.8-3.8c0.3-1.1,0.3-1.9,0.2-2.7c-0.1-0.8-0.4-1.7-1-2.7
	c-0.6-1.1-1.5-2.3-2.7-3.6c-2.3-2.5-5.6-5.1-9.1-7.5c-3.6-2.4-7.5-4.6-11.6-6.6c-8.2-4.1-16.9-7.6-25.6-10.7
	c-17.5-6.2-35.2-11.1-52.1-15.3c-16.9-4.2-33.1-7.6-48.1-10.5c-30-5.8-55.3-9.7-73-12.2c-8.8-1.3-15.8-2.2-20.5-2.8
	c-4.7-0.6-7.2-0.9-7.2-0.9l-0.2,0c-12.1-1.5-20.7-12.5-19.2-24.6c1.5-12.1,12.5-20.7,24.6-19.2C141.6,174.8,142.1,174.9,142.6,175z"
	/>
<image overflow="visible" width="161" height="105" xlink:href="B7062578BC38C64C.png"  transform="matrix(1.8838 0 0 1.8838 38.4612 76.0161)">
</image>
<g>
	<g>
		<path fill="#8BBF55" stroke="#515151" stroke-miterlimit="10" d="M409.8,201.1L373,226c-0.8,0.6-1.8,0.9-2.8,0.9
			c-0.8,0-1.6-0.3-2.4-0.6c-1.8-0.7-3.4-2-3.7-4.1l-6.8-43.9c-0.4-2.7,1.4-5.3,4.2-5.7c2.7-0.4,5.3,1.4,5.7,4.2l4.6,28.8
			c10.5-23.2,11.8-42,4.1-56.8c-13.5-25.9-51.1-30.2-51.5-30.3c-2.8-0.3-4.7-2.8-4.4-5.5c0.3-2.7,2.8-4.7,5.5-4.4
			c0.4,0,10.9,1.2,23.4,6.1c16.8,6.5,29.2,16.8,35.9,29.5c9,17.2,7.9,38.7-3.2,64.1l22.7-15.3c2.3-1.5,5.4-0.9,6.9,1.4
			C412.7,196.4,412.1,199.5,409.8,201.1z"/>
	</g>
</g>
</svg>
