<?xml version="1.0" encoding="utf-8"?>
<!-- Generator: Adobe Illustrator 18.1.1, SVG Export Plug-In . SVG Version: 6.00 Build 0)  -->
<svg version="1.1" xmlns="http://www.w3.org/2000/svg" xmlns:xlink="http://www.w3.org/1999/xlink" x="0px" y="0px"
	 viewBox="1030.4 5.4 502.5 503" enable-background="new 1030.4 5.4 502.5 503" xml:space="preserve">
<g id="Capa_1" display="none">
	<g id="texto" display="inline">
		<rect x="160.7" y="264.3" fill="none" width="105.8" height="34.8"/>
		<text transform="matrix(1 0 0 1 160.7172 288.0625)" font-family="'Helvetica-Light'" font-size="33.0221">ANTES</text>
		<rect x="270.1" y="463.7" fill="none" width="152" height="32.3"/>
		<text transform="matrix(1 0 0 1 270.0439 487.4746)" font-family="'Helvetica-Light'" font-size="33.0221">DESPUES</text>
		<rect x="1527.5" y="264.3" fill="none" width="110.3" height="34.8"/>
		<text transform="matrix(1 0 0 1 1527.4658 288.0625)" font-family="'Helvetica-Light'" font-size="33.0221">ANTES</text>
		<rect x="1342.6" y="465.2" fill="none" width="151.6" height="29.3"/>
		<text transform="matrix(1 0 0 1 1342.5967 488.9912)" font-family="'Helvetica-Light'" font-size="33.0221">DESPUES</text>
	</g>
	<g id="fondo" display="inline">
		<g>
			<path fill="#367250" d="M855.1,254.5c0,140.6-113.9,254.5-254.5,254.5S346,395.1,346,254.5S460,0,600.6,0
				C684,0,758.1,40.2,804.5,102.2C836.3,144.7,855.1,197.4,855.1,254.5z"/>
			<path fill="none" stroke="#FFFFFF" stroke-width="7" stroke-linecap="square" stroke-miterlimit="10" d="M804.5,102.2
				c-40,177.8-182.2,316.7-361.6,352.1"/>
			
				<line fill="none" stroke="#FFFFFF" stroke-width="7" stroke-linecap="square" stroke-miterlimit="10" x1="507.2" y1="18.4" x2="507.2" y2="490.8"/>
			
				<line fill="none" stroke="#FFFFFF" stroke-width="7" stroke-linecap="square" stroke-miterlimit="10" x1="693.4" y1="18.4" x2="693.4" y2="490.8"/>
		</g>
	</g>
	<g id="mpc" display="inline">
		
			<image overflow="visible" enable-background="new    " width="696" height="701" xlink:href="534D77D3B8B5DA7A.png"  transform="matrix(0.3441 0 0 0.3441 93.8705 0)">
		</image>
	</g>
	<g id="MPC" display="inline">
		<path id="C_1_" fill="#FFFFFF" stroke="#F56F00" stroke-width="8" stroke-miterlimit="10" d="M732.4,394.4l-41.8,21.4
			c-10.2-13.4-40.1-21.4-76.1-21.4c-44.3,0-80.3,13-80.3,31.1s36,32.3,80.3,32.3c35.1,0,65.2-9.3,76.1-22.1l41.8,21.8l0,0
			c-23.9,19.4-78.8,32.6-127.9,32.6c-75.1,0-136-30.1-136-67.4s60.7-67.6,135.8-67.6c19.6,0,44.9,3.2,65.5,10
			C705.2,376.6,732.4,394.4,732.4,394.4z"/>
		<g id="P_1_">
			<path fill="#FFFFFF" stroke="#F56F00" stroke-width="8" stroke-miterlimit="10" d="M672.7,190.9L672.7,190.9H505l-0.3,71.5h-31
				V301H504v34.9h67.9v-33.9h100.9l0,0c29.9,0,54.2-24.5,54.2-55.1S702.6,190.9,672.7,190.9"/>
			<path fill="#367250" stroke="#F56F00" stroke-width="8" stroke-miterlimit="10" d="M672,264.3H571.9v-39.4H672
				c11,0,21.1,8.7,21.1,19.7C693.1,255.6,682.9,264.3,672,264.3z"/>
		</g>
		<polygon id="M_1_" fill="#FFFFFF" stroke="#F56F00" stroke-width="8" stroke-miterlimit="10" points="668.7,19.4 730.3,163.4 
			668.7,163.4 639.9,92.6 601.9,122.9 564.1,92.7 533.1,163.4 470.8,163.4 533.1,19.4 601.9,79.7 		"/>
	</g>
</g>
<g id="Capa_2">
	<g id="png" display="none">
		
			<image display="inline" overflow="visible" enable-background="new    " width="245" height="245" xlink:href="534D77D3B8B5DA7E.png"  transform="matrix(1.0861 0 0 1.0861 1564.1963 0.6128)">
		</image>
	</g>
	<g id="vector">
		<path fill="#54BEE0" d="M1517.2,346.2c-36,94.8-127.8,162.3-235.2,162.3c-106.2,0-197-65.9-233.9-158.9c0,0-3-14.5,16.5-12.5
			c0,0,8.5,3.2,24.2-11.7c15.7-15,30.5-32.6,40.7-37.6s20.8-19.5,20.8-19.5s20.5-19.1,43.8-21.4c22.1-2.2,23-6.1,51.4,0
			c28.3,6.1,34.2,42.8,34.2,42.8s5.2,27.8-28.3,8.8c-33.6-19-43.1-0.1-47.9,11.3c-2.4,5.7-6,15.7,0,24.6c6,8.9,26.1,39.5,69.8,37.1
			c38.5-2.2,76.3,4.4,136.3-22.9c8.5-3.9,15-9.8,50.7-9.8s48.3-0.2,53.1,2.5C1518,343.7,1517.2,346.2,1517.2,346.2z"/>
		<path fill="#F5B233" d="M1532.9,240.1c2.9-131.4-117.6-234.6-251-234.6c-138.9,0-251.5,112.6-251.5,251.5
			c0,13.6,1.1,26.9,3.1,39.9c0,0.3,1.7,1.6,5,1.7c6.4,0.1,18.1-2.3,29.7-9.7c17.7-11.3,66.6-48.1,81.7-71.9
			c2.4-3.9,4.6-6.1,15.3-9.8s16.3-3.3,33.3-19.1c17-15.9,16.3-15.1,21.2-17.5c4.9-2.3,19.8-12.1,26.8-22.4s8.6-18.9,13.9-26.8
			s7.3-9.4,10.5-11.9c7-5.3,12.6-9.6,34.9,2.8c8.7,4.9,18,12.6,27.5,29.2c5,8.7,18.5,25.2,24.2,31.9c4.9,5.8,9.8,15.4,19.5,23.1
			c9.8,7.7,17.9,11.1,28.5,22.8c5.5,6.1,10.4,5.1,33.2,3.9c25-1.4,35.7-2.9,46.9,1.4c7.2,2.8,11.5,4.5,24.9,18.8
			c0,0,5.5,9.5,13.2,9.1C1531.7,252,1532.8,244,1532.9,240.1z"/>
	</g>
</g>
</svg>
