<?xml version="1.0" encoding="utf-8"?>
<!-- Generator: Adobe Illustrator 18.1.1, SVG Export Plug-In . SVG Version: 6.00 Build 0)  -->
<svg version="1.1" xmlns="http://www.w3.org/2000/svg" xmlns:xlink="http://www.w3.org/1999/xlink" x="0px" y="0px"
	 viewBox="346 0 509.1 509.1" enable-background="new 346 0 509.1 509.1" xml:space="preserve">
<g id="servmaql">
	
		<image display="none" overflow="visible" width="145" height="114" id="logo_jpg" xlink:href="servmaql.jpg"  transform="matrix(4.1892 0 0 4.1892 -271.1188 1199.7521)">
	</image>
	<g id="textologo">
		<g id="q">
			<line fill="none" stroke="#494949" stroke-width="4" stroke-miterlimit="10" x1="270.3" y1="1610.6" x2="270.3" y2="1704.6"/>
			<circle fill="none" stroke="#494949" stroke-width="4" stroke-miterlimit="10" cx="235.4" cy="1646.7" r="34.9"/>
		</g>
		<g id="a">
			<circle fill="none" stroke="#494949" stroke-width="4" stroke-miterlimit="10" cx="155.8" cy="1663.4" r="20.5"/>
			<path fill="none" stroke="#494949" stroke-width="4" stroke-miterlimit="10" d="M135.2,1629.8c0-11.3,9.2-20.5,20.5-20.5
				s20.5,9.2,20.5,20.5v54.3"/>
		</g>
		<g id="m">
			<line fill="none" stroke="#494949" stroke-width="4" stroke-miterlimit="10" x1="45.1" y1="1612.4" x2="45.1" y2="1684.6"/>
			<line fill="none" stroke="#494949" stroke-width="4" stroke-miterlimit="10" x1="81" y1="1630.5" x2="81" y2="1684.7"/>
			<path fill="none" stroke="#494949" stroke-width="4" stroke-linecap="square" stroke-miterlimit="10" d="M45.1,1630.5
				c0-10,7.9-18,17.8-18s18,8.1,18,18"/>
			<path fill="none" stroke="#494949" stroke-width="4" stroke-miterlimit="10" d="M81,1630.5c0-10,8.1-18,18-18s18,8.1,18,18v0
				v54.3"/>
		</g>
		<polyline id="v" fill="none" stroke="#494949" stroke-width="4" stroke-miterlimit="10" points="-38.7,1587.5 4.5,1684.7 
			45.1,1587.5 		"/>
		<g id="r">
			<line fill="none" stroke="#494949" stroke-width="4" stroke-miterlimit="10" x1="-72.8" y1="1612.4" x2="-72.8" y2="1682.7"/>
			<path fill="none" stroke="#494949" stroke-width="4" stroke-miterlimit="10" d="M-72.8,1630.5c0-10,8.1-18,18-18
				c4.6,0,8.7,1.7,11.9,4.5"/>
		</g>
		<g id="e">
			<path fill="none" stroke="#494949" stroke-width="4" stroke-miterlimit="10" d="M-91.8,1667c-6.3,10.5-17.7,17.5-30.9,17.5
				c-19.8,0-35.9-16.1-35.9-35.9s16.1-35.9,35.9-35.9c13.1,0,24.6,7,30.9,17.5l0,0l-60.8,38.2"/>
		</g>
		<g id="s">
			<path fill="none" stroke="#494949" stroke-width="4" stroke-miterlimit="10" d="M-198.9,1648.5"/>
			<path fill="none" stroke="#494949" stroke-width="4" stroke-miterlimit="10" d="M-217,1666.6c0,10,8.1,18,18,18
				c10,0,18-8.1,18-18c0-10-8.1-18-18-18c-10,0-18-8.1-18-18c0-10,8.1-18,18-18c7.2,0,13.4,4.2,16.3,10.3"/>
		</g>
	</g>
	<g id="logo">
		<path fill="#43A5DC" d="M213,1226.9c-53.6,53.2-138.4,87.6-233.9,87.6c-30.3,0-59.6-3.5-87.1-9.9l-31.2,27l0,0
			c45.9,21.7,100.3,34.2,158.7,34.2c103.3,0,194.3-39.4,247.5-99.1l0,0L213,1226.9L213,1226.9z"/>
		<path fill="#86C534" d="M116.7,1380.1c-28.9,6.3-59.6,9.7-91.4,9.7c-68.3,0-131.5-15.7-182.7-42.3l0,0l-19.7,17.3l0,0
			c56.6,45.4,139.4,74,231.6,74c34.7,0,68-4,99.2-11.5l0,0L116.7,1380.1L116.7,1380.1z"/>
		<path fill="#E26D3F" d="M-19.1,1498.1c-89.5-10.3-164.4-45.2-204.2-92.5l0,0l24.1-21.2l0,0c39.4,32.5,97.3,56.6,164.3,66.7l0,0
			L-19.1,1498.1L-19.1,1498.1z"/>
	</g>
	<g id="trazado">
		<path fill="none" stroke="#B26666" stroke-width="3" stroke-miterlimit="10" d="M-97.6,1394.1c-61.7-29.1-102.6-80.5-102.6-138.9
			c0-90.8,98.8-164.4,220.6-164.4s220.6,73.6,220.6,164.4c0,33.5-13.5,64.7-36.6,90.7"/>
		<path fill="none" stroke="#B26666" stroke-width="3" stroke-miterlimit="10" d="M-125.7,1418.8c-35.7-28.6-57.4-66.2-57.4-107.4
			c0-89.7,102.8-162.4,229.6-162.4S276,1221.7,276,1311.4c0,71.5-65.2,132.1-155.8,153.9"/>
		<path fill="none" stroke="#B26666" stroke-width="3" stroke-miterlimit="10" d="M-160.1,1449.1c-14.7-17.5-23-37.2-23-58.1
			c0-71.3,96.6-129.2,215.8-129.2s215.8,57.8,215.8,129.2c0,71.3-96.6,129.2-215.8,129.2c-14,0-27.7-0.8-41-2.3"/>
		<path fill="none" stroke="#B26666" stroke-width="3" stroke-miterlimit="10" d="M-142.2,1433.4c-25.8-21.3-41-47.4-41-75.7
			c0-71.3,96.6-129.2,215.8-129.2s215.8,57.8,215.8,129.2s-96.6,129.2-215.8,129.2c-18.2,0-35.8-1.3-52.7-3.9"/>
		<path fill="none" stroke="#B26666" stroke-width="3" stroke-miterlimit="10" d="M-111.1,1406c-56.9-29.6-93.8-77.2-93.8-131
			c0-89.7,102.8-162.4,229.6-162.4s229.6,72.7,229.6,162.4c0,73-68,134.7-161.6,155.2"/>
		<path fill="none" stroke="#B26666" stroke-width="3" stroke-miterlimit="10" d="M-74.5,1374c-88.9-20.8-153.4-83.2-153.4-157
			c0-90.8,97.7-164.4,218.2-164.4s218.2,73.6,218.2,164.4c0,37.3-16.5,71.7-44.3,99.3"/>
	</g>
</g>
<g id="mpc_1_">
	<g id="texto" display="none">
		<rect x="221.5" y="288.1" display="inline" fill="none" width="105.8" height="34.8"/>
		<text transform="matrix(1 0 0 1 221.4397 311.8564)" display="inline" font-family="'Helvetica-Light'" font-size="33.0221">ANTES</text>
		<rect x="330.8" y="487.5" display="inline" fill="none" width="152" height="32.3"/>
		<text transform="matrix(1 0 0 1 330.7664 511.2685)" display="inline" font-family="'Helvetica-Light'" font-size="33.0221">DESPUES</text>
		<rect x="1588.2" y="288.1" display="inline" fill="none" width="110.3" height="34.8"/>
		<text transform="matrix(1 0 0 1 1588.1882 311.8564)" display="inline" font-family="'Helvetica-Light'" font-size="33.0221">ANTES</text>
		<rect x="1403.3" y="489" display="inline" fill="none" width="151.6" height="29.3"/>
		<text transform="matrix(1 0 0 1 1403.3192 512.785)" display="inline" font-family="'Helvetica-Light'" font-size="33.0221">DESPUES</text>
	</g>
	<g id="fondo">
		<g>
			<path fill="#367250" d="M855.1,254.5c0,140.6-113.9,254.5-254.5,254.5S346,395.1,346,254.5S460,0,600.6,0
				C684,0,758.1,40.2,804.5,102.2C836.3,144.7,855.1,197.4,855.1,254.5z"/>
			<path fill="none" stroke="#FFFFFF" stroke-width="7" stroke-linecap="square" stroke-miterlimit="10" d="M804.5,102.2
				c-40,177.8-182.2,316.7-361.6,352.1"/>
			
				<line fill="none" stroke="#FFFFFF" stroke-width="7" stroke-linecap="square" stroke-miterlimit="10" x1="507.2" y1="18.4" x2="507.2" y2="490.8"/>
			
				<line fill="none" stroke="#FFFFFF" stroke-width="7" stroke-linecap="square" stroke-miterlimit="10" x1="693.4" y1="18.4" x2="693.4" y2="490.8"/>
		</g>
	</g>
	<g id="mpc" display="none">
		
			<image display="inline" overflow="visible" enable-background="new    " width="696" height="701" xlink:href="D589887E6AD01046.png"  transform="matrix(0.3441 0 0 0.3441 93.8706 0)">
		</image>
	</g>
	<g id="MPC">
		<path id="C_1_" fill="#FFFFFF" stroke="#F56F00" stroke-width="8" stroke-miterlimit="10" d="M732.4,394.4l-41.8,21.4
			c-10.2-13.4-40.1-21.4-76.1-21.4c-44.3,0-80.3,13-80.3,31.1s36,32.3,80.3,32.3c35.1,0,65.2-9.3,76.1-22.1l41.8,21.8l0,0
			c-23.9,19.4-78.8,32.6-127.9,32.6c-75.1,0-136-30.1-136-67.4s60.7-67.6,135.8-67.6c19.6,0,44.9,3.2,65.5,10
			C705.2,376.6,732.4,394.4,732.4,394.4z"/>
		<g id="P_1_">
			<path fill="#FFFFFF" stroke="#F56F00" stroke-width="8" stroke-miterlimit="10" d="M672.7,190.9L672.7,190.9H505l-0.3,71.5h-31
				V301H504v34.9h52.4v-33.9h116.3l0,0c29.9,0,54.2-24.5,54.2-55.1S702.6,190.9,672.7,190.9"/>
			<path fill="#367250" stroke="#F56F00" stroke-width="8" stroke-miterlimit="10" d="M672,264.3l-115.6-0.6v-39.4l115.6,0.6
				c11,0,21.1,8.7,21.1,19.7C693.1,255.6,682.9,264.3,672,264.3z"/>
		</g>
		<polygon id="M_1_" fill="#FFFFFF" stroke="#F56F00" stroke-width="8" stroke-miterlimit="10" points="668.7,19.4 730.3,163.4 
			668.7,163.4 639.9,92.6 601.9,122.9 564.1,92.7 533.1,163.4 470.8,163.4 533.1,19.4 601.9,79.7 		"/>
	</g>
</g>
<g id="pandeazucar">
	<g id="png">
		
			<image overflow="visible" enable-background="new    " width="245" height="245" xlink:href="D589887E6AD01041.png"  transform="matrix(1.0861 0 0 1.0861 1564.1963 0.6128)">
		</image>
	</g>
	<g id="vector">
		<path fill="#54BEE0" d="M1517.2,346.2c-36,94.8-127.8,162.3-235.2,162.3c-106.2,0-197-65.9-233.9-158.9c0,0-3-14.5,16.5-12.5
			c0,0,8.5,3.2,24.2-11.7c15.7-15,30.5-32.6,40.7-37.6c10.2-5,20.8-19.5,20.8-19.5s20.5-19.1,43.8-21.4c22.1-2.2,23-6.1,51.4,0
			c28.3,6.1,34.2,42.8,34.2,42.8s5.2,27.8-28.3,8.8c-33.6-19-43.1-0.1-47.9,11.3c-2.4,5.7-6,15.7,0,24.6c6,8.9,26.1,39.5,69.8,37.1
			c38.5-2.2,76.3,4.4,136.3-22.9c8.5-3.9,15-9.8,50.7-9.8s48.3-0.2,53.1,2.5C1518,343.7,1517.2,346.2,1517.2,346.2z"/>
		<path fill="#F5B233" d="M1532.9,240.1c2.9-131.4-117.6-234.6-251-234.6c-138.9,0-251.5,112.6-251.5,251.5
			c0,13.6,1.1,26.9,3.1,39.9c0,0.3,1.7,1.6,5,1.7c6.4,0.1,18.1-2.3,29.7-9.7c17.7-11.3,66.6-48.1,81.7-71.9
			c2.4-3.9,4.6-6.1,15.3-9.8c10.7-3.8,16.3-3.3,33.3-19.1c17-15.9,16.3-15.1,21.2-17.5c4.9-2.3,19.8-12.1,26.8-22.4
			s8.6-18.9,13.9-26.8c5.3-7.9,7.3-9.4,10.5-11.9c7-5.3,12.6-9.6,34.9,2.8c8.7,4.9,18,12.6,27.5,29.2c5,8.7,18.5,25.2,24.2,31.9
			c4.9,5.8,9.8,15.4,19.5,23.1c9.8,7.7,17.9,11.1,28.5,22.8c5.5,6.1,10.4,5.1,33.2,3.9c25-1.4,35.7-2.9,46.9,1.4
			c7.2,2.8,11.5,4.5,24.9,18.8c0,0,5.5,9.5,13.2,9.1C1531.7,252,1532.8,244,1532.9,240.1z"/>
	</g>
</g>
</svg>
