<?xml version="1.0" encoding="utf-8"?>
<!-- Generator: Adobe Illustrator 18.1.1, SVG Export Plug-In . SVG Version: 6.00 Build 0)  -->
<svg version="1.1" id="Capa_1" xmlns="http://www.w3.org/2000/svg" xmlns:xlink="http://www.w3.org/1999/xlink" x="0px" y="0px"
	 viewBox="0 0 471.9 472.4" enable-background="new 0 0 471.9 472.4" xml:space="preserve">
<circle fill="#5CBBFF" stroke="#0088FF" stroke-width="10" stroke-linejoin="round" stroke-miterlimit="10" cx="235.6" cy="236.5" r="230.4"/>
<g>
	<path fill="#0088FF" d="M75.1,125.9c-5.5,0-10,4.5-10,10v201.2c0,5.5,4.5,10,10,10h321c5.5,0,10-4.5,10-10V135.9
		c0-5.5-4.5-10-10-10H75.1z M121.1,127.2c5.6,0,10.1,4.5,10.1,10.1c0,5.6-4.5,10.1-10.1,10.1c-5.6,0-10.1-4.5-10.1-10.1
		C111,131.8,115.5,127.2,121.1,127.2z M100.6,127.2c5.6,0,10.1,4.5,10.1,10.1c0,5.6-4.5,10.1-10.1,10.1c-5.6,0-10.1-4.5-10.1-10.1
		C90.5,131.8,95,127.2,100.6,127.2z M70,137.4c0-5.6,4.5-10.1,10.1-10.1c5.6,0,10.1,4.5,10.1,10.1c0,5.6-4.5,10.1-10.1,10.1
		C74.5,147.5,70,142.9,70,137.4z M395.3,329.4c0,5.5-4.5,10-10,10H85.9c-5.5,0-10-4.5-10-10V160.5c0-5.5,4.5-10,10-10h299.5
		c5.5,0,10,4.5,10,10V329.4z"/>
	<path fill="none" stroke="#0088FF" stroke-width="10" stroke-linejoin="round" stroke-miterlimit="10" d="M75.1,125.9
		c-5.5,0-10,4.5-10,10v201.2c0,5.5,4.5,10,10,10h321c5.5,0,10-4.5,10-10V135.9c0-5.5-4.5-10-10-10H75.1z M121.1,127.2
		c5.6,0,10.1,4.5,10.1,10.1c0,5.6-4.5,10.1-10.1,10.1c-5.6,0-10.1-4.5-10.1-10.1C111,131.8,115.5,127.2,121.1,127.2z M100.6,127.2
		c5.6,0,10.1,4.5,10.1,10.1c0,5.6-4.5,10.1-10.1,10.1c-5.6,0-10.1-4.5-10.1-10.1C90.5,131.8,95,127.2,100.6,127.2z M70,137.4
		c0-5.6,4.5-10.1,10.1-10.1c5.6,0,10.1,4.5,10.1,10.1c0,5.6-4.5,10.1-10.1,10.1C74.5,147.5,70,142.9,70,137.4z M395.3,329.4
		c0,5.5-4.5,10-10,10H85.9c-5.5,0-10-4.5-10-10V160.5c0-5.5,4.5-10,10-10h299.5c5.5,0,10,4.5,10,10V329.4z"/>
</g>
<g>
	
		<line fill="none" stroke="#FFFFFF" stroke-width="10" stroke-linecap="round" stroke-linejoin="round" stroke-miterlimit="10" x1="126.7" y1="188" x2="211.7" y2="188"/>
	
		<line fill="none" stroke="#FFFFFF" stroke-width="10" stroke-linecap="round" stroke-linejoin="round" stroke-miterlimit="10" x1="151.7" y1="219" x2="345.7" y2="219"/>
	
		<line fill="none" stroke="#FFFFFF" stroke-width="10" stroke-linecap="round" stroke-linejoin="round" stroke-miterlimit="10" x1="151.7" y1="249" x2="345.7" y2="249"/>
	
		<line fill="none" stroke="#FFFFFF" stroke-width="10" stroke-linecap="round" stroke-linejoin="round" stroke-miterlimit="10" x1="151.7" y1="280" x2="345.7" y2="280"/>
	
		<line fill="none" stroke="#FFFFFF" stroke-width="10" stroke-linecap="round" stroke-linejoin="round" stroke-miterlimit="10" x1="126.7" y1="310" x2="211.7" y2="310"/>
</g>
</svg>
